<?xml version="1.0" standalone="no"?>
<!DOCTYPE svg PUBLIC "-//W3C//DTD SVG 20010904//EN"
 "http://www.w3.org/TR/2001/REC-SVG-20010904/DTD/svg10.dtd">
<svg version="1.0" xmlns="http://www.w3.org/2000/svg"
 width="260.000000pt" height="260.000000pt" viewBox="0 0 260.000000 260.000000"
 preserveAspectRatio="xMidYMid meet">
<metadata>
Created by potrace 1.11, written by Peter Selinger 2001-2013
</metadata>
<g transform="translate(0.000000,260.000000) scale(0.100000,-0.100000)"
fill="#000000" stroke="none">
<path d="M1283 2554 c0 -7 4 -11 8 -8 4 2 10 0 13 -5 4 -5 -5 -8 -18 -7 -14 2
-27 -3 -30 -10 -3 -8 -13 -14 -21 -14 -9 0 -13 5 -10 10 4 6 10 8 14 6 4 -3 8
1 8 9 0 13 -3 12 -18 -1 -10 -9 -16 -21 -13 -25 5 -9 -11 -13 -30 -10 -5 1 -4
-5 4 -13 13 -16 9 -19 -25 -17 -11 0 -14 -2 -7 -5 19 -9 14 -24 -5 -17 -16 6
-16 5 -4 -10 12 -15 12 -17 -2 -11 -12 4 -15 0 -13 -20 2 -17 -2 -26 -10 -26
-8 0 -14 -5 -14 -11 0 -5 4 -8 9 -4 5 3 12 1 15 -4 4 -5 -4 -8 -17 -7 -20 2
-22 -2 -22 -33 0 -20 4 -42 9 -50 6 -10 5 -12 -2 -7 -7 4 -12 2 -12 -3 0 -6 5
-11 10 -11 6 0 10 -5 10 -11 0 -5 -5 -7 -11 -3 -7 4 -10 1 -7 -7 3 -8 11 -13
17 -11 7 1 10 -2 6 -8 -3 -6 -11 -8 -16 -5 -5 4 -9 1 -9 -4 0 -6 4 -11 8 -11
4 0 8 -12 8 -27 -1 -19 4 -27 13 -25 9 2 12 -5 9 -22 -3 -14 -2 -25 1 -24 3 0
13 0 21 -1 12 -1 13 -3 1 -10 -11 -7 -9 -11 8 -20 12 -7 19 -16 16 -20 -3 -5
2 -12 11 -15 10 -4 13 -2 8 7 -5 9 -3 8 7 -1 11 -11 12 -14 1 -21 -11 -7 -10
-10 3 -14 9 -4 13 -3 10 3 -3 6 -1 10 4 10 6 0 11 -5 11 -11 0 -5 4 -7 10 -4
6 4 7 -1 3 -12 -3 -10 -3 -15 2 -11 4 4 14 3 22 -4 11 -9 12 -7 7 8 -5 18 -5
18 9 2 8 -10 17 -15 20 -11 4 3 7 2 7 -4 0 -6 13 -13 29 -15 19 -3 28 0 25 6
-3 6 1 3 9 -7 13 -16 15 -16 21 -2 4 11 2 14 -7 9 -7 -4 -7 -1 2 7 10 11 15
11 18 2 3 -7 9 -13 15 -13 6 0 8 6 5 14 -4 10 0 12 15 8 14 -3 19 -1 14 6 -4
7 -2 12 3 12 6 0 11 -5 11 -11 0 -5 5 -7 10 -4 6 4 7 12 3 18 -5 8 -2 8 9 -1
13 -10 15 -9 13 13 -2 15 1 23 7 19 11 -7 50 31 41 40 -4 3 4 6 16 6 14 0 20
4 15 11 -3 6 0 15 7 20 10 6 11 9 2 9 -7 0 -13 4 -13 9 0 6 8 8 18 6 12 -2 18
3 18 15 0 11 -5 16 -11 12 -6 -4 -4 0 5 8 17 17 27 55 11 46 -6 -4 -8 4 -4 21
10 53 10 73 2 73 -5 0 -9 5 -9 11 0 5 3 8 8 5 4 -2 8 9 9 26 0 21 -2 26 -8 17
-7 -11 -12 -11 -26 5 -10 10 -13 16 -6 12 6 -3 14 -2 17 3 3 5 -4 11 -16 14
-18 5 -19 8 -8 21 10 14 10 16 -6 16 -17 0 -17 1 1 14 18 13 17 14 -10 9 -21
-3 -26 -2 -17 5 11 7 7 11 -13 16 -21 5 -26 11 -22 27 3 12 3 18 0 15 -10 -9
-33 15 -26 27 4 6 1 7 -8 1 -23 -14 -60 -12 -54 4 2 7 0 10 -5 7 -6 -3 -10 -2
-10 2 0 11 -48 9 -74 -2 -11 -5 -26 -4 -36 2 -13 9 -17 8 -17 -3z m-153 -393
c0 -6 -4 -12 -8 -15 -5 -3 -9 1 -9 9 0 8 4 15 9 15 4 0 8 -4 8 -9z"/>
<path d="M1560 1750 c-8 -5 -10 -10 -5 -11 6 0 -1 -4 -15 -8 -14 -4 -24 -13
-23 -19 2 -6 -4 -9 -13 -5 -13 5 -13 7 -2 14 10 7 10 9 0 9 -7 0 -15 -7 -18
-15 -4 -8 -11 -12 -18 -8 -6 4 -4 -2 4 -12 8 -10 10 -16 3 -12 -6 4 -15 2 -18
-4 -4 -5 -14 -8 -22 -5 -8 3 -12 2 -9 -3 3 -4 -2 -17 -10 -27 -9 -10 -13 -14
-10 -7 4 6 1 15 -6 19 -7 4 -10 3 -5 -1 4 -5 0 -17 -10 -27 -9 -10 -13 -18 -8
-18 4 0 0 -11 -8 -24 -12 -18 -13 -26 -4 -35 9 -9 8 -11 -4 -6 -10 4 -20 1
-25 -6 -5 -8 -3 -10 6 -4 10 6 12 4 7 -9 -6 -14 -3 -15 16 -6 l22 11 -22 -17
c-24 -17 -32 -41 -10 -28 6 4 5 -1 -4 -12 -11 -12 -14 -26 -9 -39 4 -11 3 -26
-4 -34 -8 -11 -8 -13 2 -7 15 9 16 -6 1 -21 -13 -13 -3 -36 12 -28 5 4 9 1 9
-5 0 -6 4 -9 9 -6 4 3 8 -4 7 -17 -1 -13 4 -21 12 -19 8 1 11 -2 7 -8 -3 -6
-10 -8 -14 -6 -4 3 -8 -1 -8 -9 0 -8 4 -12 9 -9 4 3 8 0 8 -6 0 -6 5 -8 11 -4
8 5 10 -1 7 -20 -4 -19 -2 -24 5 -17 7 7 15 5 24 -7 8 -9 11 -11 7 -3 -5 9 -3
12 5 7 6 -4 9 -11 6 -16 -3 -4 5 -10 16 -13 12 -3 19 -9 16 -14 -3 -4 11 -8
31 -8 28 0 36 -4 34 -16 -1 -9 4 -16 13 -16 8 0 12 4 9 9 -3 4 -1 8 5 8 5 0
11 -6 14 -12 3 -10 8 -9 22 2 10 8 16 10 13 5 -4 -6 2 -11 12 -11 15 0 17 3 7
15 -10 12 -9 13 1 7 23 -14 59 -14 59 0 0 10 -6 10 -21 3 -19 -9 -19 -9 -4 4
9 7 33 13 52 12 20 -1 33 2 30 7 -3 4 -10 6 -15 3 -5 -4 -9 -1 -9 4 0 6 5 11
10 11 6 0 9 5 8 12 -2 7 4 13 12 14 36 3 40 5 40 15 0 8 -6 7 -17 -2 -15 -11
-14 -10 1 9 19 22 32 30 21 13 -3 -5 -1 -12 4 -15 5 -4 7 7 5 23 -4 22 -1 30
12 33 14 2 18 15 19 56 1 29 7 58 13 64 15 15 15 28 1 28 -5 0 -7 -5 -3 -12 4
-7 3 -8 -4 -4 -6 4 -9 13 -6 21 4 8 10 12 15 9 5 -3 6 2 3 10 -3 9 -11 13 -18
9 -6 -4 -6 0 2 9 10 13 10 17 0 21 -10 4 -10 6 0 6 6 1 12 6 12 12 0 5 -4 7
-10 4 -5 -3 -10 -1 -10 5 0 6 -4 9 -8 6 -5 -3 -8 10 -7 29 1 28 -2 32 -14 22
-12 -10 -13 -9 -1 12 11 21 10 23 -4 18 -8 -3 -18 -1 -22 5 -4 7 -3 8 4 4 18
-11 14 3 -5 22 -12 13 -17 14 -21 4 -3 -10 -8 -8 -17 5 -10 14 -11 22 -2 33 6
8 7 12 3 8 -5 -4 -16 -2 -24 5 -9 6 -13 7 -9 1 3 -6 0 -11 -7 -11 -8 0 -12 7
-9 14 3 9 0 14 -8 13 -8 -1 -23 -2 -34 -1 -17 1 -18 3 -5 11 20 13 4 13 -20 0
-13 -7 -21 -7 -26 2 -5 7 -3 8 7 3 8 -5 10 -4 6 0 -13 15 -39 15 -33 0 3 -9 0
-12 -9 -8 -8 3 -12 9 -9 14 7 11 3 11 -16 -1z m-155 -130 c3 -5 -1 -10 -10
-10 -9 0 -13 5 -10 10 3 6 8 10 10 10 2 0 7 -4 10 -10z m-25 -50 c0 -5 -5 -10
-11 -10 -5 0 -7 5 -4 10 3 6 8 10 11 10 2 0 4 -4 4 -10z m-20 -204 c0 -3 -4
-8 -10 -11 -5 -3 -10 -1 -10 4 0 6 5 11 10 11 6 0 10 -2 10 -4z"/>
<path d="M1756 1678 c3 -5 10 -6 15 -3 13 9 11 12 -6 12 -8 0 -12 -4 -9 -9z"/>
<path d="M1851 1564 c0 -11 3 -14 6 -6 3 7 2 16 -1 19 -3 4 -6 -2 -5 -13z"/>
<path d="M463 1553 c4 -6 3 -14 -3 -18 -5 -3 -10 0 -10 7 0 9 -3 9 -10 -2 -6
-10 -10 -11 -10 -2 0 6 -5 12 -11 12 -5 0 -7 -5 -3 -12 4 -7 3 -8 -4 -4 -25
15 -51 15 -45 0 4 -12 0 -13 -22 -4 -25 9 -27 9 -15 -5 11 -14 10 -14 -14 -5
-18 6 -25 6 -21 0 3 -6 3 -15 -1 -22 -5 -7 -12 -5 -22 8 -12 15 -13 15 -9 2 3
-9 -1 -22 -10 -30 -15 -11 -16 -11 -10 5 4 11 3 16 -3 12 -6 -3 -10 -12 -10
-19 0 -8 -8 -20 -17 -27 -17 -13 -17 -13 -3 6 14 19 14 19 -3 6 -10 -8 -15
-21 -12 -29 5 -13 3 -13 -12 -1 -10 7 -15 9 -11 5 4 -5 0 -15 -10 -23 -9 -8
-12 -12 -6 -9 6 3 11 -1 11 -9 0 -8 -3 -13 -5 -10 -8 8 -34 -34 -27 -45 3 -6
-2 -10 -12 -10 -15 0 -16 -2 -3 -10 13 -9 13 -10 0 -10 -12 0 -12 -2 -1 -9 10
-6 10 -10 1 -16 -8 -5 -6 -12 6 -26 14 -16 15 -19 3 -14 -10 4 -16 0 -16 -10
0 -9 6 -14 13 -11 9 3 11 -1 7 -11 -5 -12 -3 -14 8 -8 8 5 5 -2 -6 -14 -11
-12 -15 -22 -10 -21 6 2 19 2 30 1 17 -1 18 -3 5 -11 -11 -7 -11 -10 -2 -10 7
0 10 -4 7 -10 -3 -5 0 -7 8 -4 11 4 14 -2 12 -20 -2 -15 1 -24 6 -20 5 3 6 10
3 16 -10 15 55 -24 69 -42 7 -8 -4 -4 -23 9 l-35 23 29 -26 c24 -20 34 -23 49
-14 14 7 17 7 13 -1 -4 -6 -2 -11 4 -11 6 0 8 -5 3 -12 -4 -7 6 -4 22 6 l30
19 -17 -25 c-13 -20 -13 -25 -3 -25 8 0 12 4 9 9 -3 4 2 8 11 8 10 0 13 -5 9
-12 -5 -9 -2 -9 9 1 14 11 17 11 17 0 0 -11 2 -11 10 1 5 8 10 10 10 4 0 -7 7
-15 16 -18 15 -6 15 -4 3 10 -13 16 -12 16 7 6 16 -8 24 -8 34 1 10 9 11 9 6
0 -4 -7 -3 -13 1 -13 5 0 15 6 22 13 11 10 13 10 7 0 -5 -8 -1 -13 9 -13 9 0
13 5 10 10 -3 6 -2 10 4 10 5 0 14 -7 19 -16 8 -15 10 -15 15 0 5 11 3 15 -5
10 -7 -4 -8 -3 -4 5 6 9 11 9 22 0 10 -8 14 -8 14 0 0 6 5 11 11 11 5 0 7 -6
3 -12 -3 -7 5 -1 20 15 26 27 43 36 31 18 -3 -6 3 -9 14 -8 15 1 17 4 9 14 -7
9 -7 13 1 13 7 0 10 4 7 9 -3 4 6 6 21 3 20 -4 24 -2 18 8 -6 10 -3 12 13 8
12 -4 20 -2 17 2 -3 5 0 10 7 13 7 2 5 3 -4 2 -10 -2 -21 1 -24 6 -3 5 -2 9 3
8 14 -4 43 13 38 21 -3 4 2 10 10 14 8 3 12 12 9 21 -4 10 0 15 10 15 9 0 16
5 16 11 0 5 -4 8 -9 4 -5 -3 -12 -1 -16 5 -3 5 0 10 7 10 18 0 15 80 -4 91 -9
6 -6 9 12 10 l25 1 -25 8 c-21 7 -22 8 -5 9 16 2 14 5 -10 16 -16 7 -26 14
-21 14 5 1 3 8 -4 16 -7 8 -16 12 -21 9 -5 -3 -5 5 0 19 7 17 6 24 -4 24 -8 0
-11 -7 -7 -16 5 -14 4 -14 -10 -1 -9 8 -13 19 -10 24 3 5 -3 6 -13 2 -15 -5
-16 -4 -5 9 11 13 11 16 -1 13 -8 -2 -13 3 -11 10 1 8 -2 11 -8 7 -5 -3 -10
-1 -10 6 0 7 -3 10 -6 7 -3 -4 0 -17 6 -30 l11 -23 -19 24 c-13 16 -25 22 -37
17 -12 -4 -16 -2 -12 8 4 9 -1 15 -11 15 -80 3 -112 8 -127 21 -11 8 -16 10
-12 3z m152 -503 c3 -6 -1 -7 -9 -4 -18 7 -21 14 -7 14 6 0 13 -4 16 -10z"/>
<path d="M765 1420 c3 -5 8 -10 11 -10 2 0 4 5 4 10 0 6 -5 10 -11 10 -5 0 -7
-4 -4 -10z"/>
<path d="M1866 1368 c3 -5 10 -6 15 -3 13 9 11 12 -6 12 -8 0 -12 -4 -9 -9z"/>
<path d="M1350 1320 c0 -5 5 -10 11 -10 5 0 7 5 4 10 -3 6 -8 10 -11 10 -2 0
-4 -4 -4 -10z"/>
<path d="M1495 1150 c-3 -6 1 -7 9 -4 18 7 21 14 7 14 -6 0 -13 -4 -16 -10z"/>
<path d="M1991 896 c-1 -14 -4 -16 -14 -8 -19 16 -56 11 -49 -7 3 -9 1 -12 -7
-7 -6 4 -18 3 -26 -4 -10 -8 -19 -8 -34 0 -17 9 -20 8 -14 -6 4 -11 2 -15 -4
-11 -6 4 -14 0 -17 -9 -4 -10 -12 -14 -22 -10 -15 6 -15 4 -3 -10 13 -16 12
-16 -8 -6 -19 11 -21 9 -19 -13 2 -13 -1 -22 -5 -19 -5 3 -12 -2 -15 -10 -3
-9 -10 -13 -15 -10 -5 3 -9 0 -9 -5 0 -6 5 -11 10 -11 6 0 10 -5 10 -11 0 -5
-4 -8 -9 -5 -14 9 -21 -20 -8 -34 9 -10 9 -11 0 -6 -6 3 -18 3 -27 0 -15 -6
-15 -8 1 -20 17 -13 17 -13 -2 -14 l-20 -1 20 -9 c11 -5 14 -9 7 -9 -7 -1 -11
-5 -8 -10 4 -5 0 -12 -6 -14 -8 -3 -6 -6 5 -6 9 -1 17 -5 17 -11 0 -5 -8 -10
-17 -11 -14 0 -13 -3 5 -11 12 -6 22 -15 22 -20 0 -5 -4 -6 -10 -3 -5 3 -10 2
-10 -2 0 -5 9 -14 21 -21 17 -11 19 -16 7 -29 -8 -11 -9 -14 -1 -10 14 9 36
-26 25 -39 -4 -5 0 -3 9 4 14 10 18 10 23 -3 3 -9 2 -13 -4 -10 -6 3 -10 1
-10 -6 0 -7 8 -9 21 -6 15 4 23 0 26 -13 3 -13 13 -19 27 -17 15 1 20 -3 18
-15 -3 -21 8 -23 27 -5 11 9 13 9 7 0 -5 -9 2 -13 21 -14 15 -1 31 -1 36 0 4
0 7 -4 7 -10 0 -5 5 -7 10 -4 6 4 8 11 5 16 -3 5 1 6 9 3 9 -3 16 -11 16 -18
0 -8 3 -8 8 0 11 16 41 24 47 14 4 -7 13 -7 24 0 10 5 22 6 27 2 5 -4 2 1 -6
11 -7 10 -9 17 -4 16 16 -2 54 13 54 23 0 5 -5 6 -12 2 -7 -4 -8 -3 -4 4 4 6
13 9 21 5 8 -3 15 0 15 7 0 6 5 8 11 4 7 -4 7 1 -1 16 -6 12 -9 24 -6 28 3 3
6 0 6 -6 0 -7 5 -12 11 -12 5 0 7 4 4 10 -6 9 8 14 28 11 5 -1 6 3 2 9 -3 6
-12 8 -18 4 -7 -3 -5 0 3 8 8 7 14 27 14 43 -1 17 4 33 10 37 7 5 7 8 -3 8
-11 0 -11 3 0 17 10 11 10 14 2 9 -7 -4 -13 -3 -13 1 0 5 6 15 13 22 7 9 7 11
1 8 -7 -4 -15 0 -18 9 -9 23 -7 31 4 14 7 -12 9 -10 8 7 -2 14 -7 19 -18 15
-12 -4 -12 -2 -3 8 14 15 6 40 -13 40 -8 0 -14 5 -14 11 0 5 -5 7 -12 3 -7 -4
-8 -3 -4 5 6 9 11 9 24 0 10 -7 6 -1 -8 13 -14 14 -29 23 -33 21 -4 -3 -5 8
-2 24 5 25 4 26 -4 6 -6 -13 -13 -23 -16 -23 -4 0 -3 5 0 10 3 6 1 10 -5 10
-7 0 -10 6 -7 14 3 7 0 13 -6 13 -34 -1 -47 5 -47 20 0 9 -3 14 -6 10 -3 -3
-17 -1 -31 4 -21 8 -24 7 -19 -6 3 -8 3 -15 0 -15 -2 0 -9 10 -14 23 -7 19 -9
19 -9 3z m64 -34 c-3 -3 -11 0 -18 7 -9 10 -8 11 6 5 10 -3 15 -9 12 -12z
m160 -132 c3 -6 -1 -7 -9 -4 -18 7 -21 14 -7 14 6 0 13 -4 16 -10z m-125 -340
c0 -5 -5 -10 -11 -10 -5 0 -7 5 -4 10 3 6 8 10 11 10 2 0 4 -4 4 -10z"/>
<path d="M1886 889 c2 -4 -2 -10 -8 -12 -8 -4 -9 -6 -2 -6 6 -1 17 5 23 12 8
10 7 14 -4 14 -8 0 -12 -4 -9 -8z"/>
<path d="M875 701 c6 -11 1 -13 -24 -9 -17 2 -31 1 -31 -4 0 -4 -5 -8 -11 -8
-5 0 -8 4 -5 8 3 5 -1 9 -9 9 -8 0 -12 -4 -9 -9 3 -4 -1 -9 -8 -10 -7 0 -20
-2 -28 -3 -8 -1 -19 1 -25 4 -16 8 -45 8 -39 0 2 -4 -5 -10 -16 -14 -11 -4
-18 -11 -14 -16 3 -5 2 -9 -3 -8 -4 1 -10 1 -13 -1 -23 -8 -59 -7 -54 2 4 7 2
8 -5 4 -9 -6 -9 -11 -1 -21 8 -10 8 -15 -1 -21 -8 -4 -9 -3 -5 4 5 8 0 12 -13
12 -12 0 -21 -5 -21 -11 0 -5 -6 -7 -12 -3 -9 5 -8 2 1 -9 12 -15 12 -17 -2
-12 -8 4 -18 1 -22 -4 -3 -6 -11 -8 -17 -5 -7 4 -8 2 -4 -5 6 -9 11 -9 21 -1
9 8 15 8 20 0 4 -6 3 -10 -2 -9 -16 4 -43 -13 -36 -24 4 -6 0 -8 -10 -4 -9 3
-16 3 -15 -1 1 -8 -9 -39 -22 -63 -6 -11 -3 -24 6 -38 14 -19 13 -21 -2 -21
-13 0 -12 -4 7 -21 16 -13 18 -19 7 -16 -19 7 -18 -10 3 -41 9 -12 19 -19 24
-14 4 4 5 -3 2 -15 -3 -13 0 -26 5 -30 7 -3 8 -1 4 5 -4 7 -2 12 3 12 6 0 11
-4 11 -10 0 -5 7 -10 16 -10 8 0 13 -4 10 -9 -3 -5 1 -14 9 -21 13 -11 15 -10
9 6 -5 18 -5 18 9 2 8 -10 17 -15 21 -11 4 4 4 0 1 -9 -5 -13 -1 -16 20 -13
16 1 29 -3 32 -11 3 -8 10 -11 17 -7 21 14 38 13 26 -2 -8 -10 -8 -15 1 -21 8
-4 9 -3 5 4 -4 7 -1 12 9 12 9 0 13 -5 10 -10 -3 -6 5 -10 19 -10 13 0 27 6
30 13 3 6 3 1 0 -13 -4 -22 -3 -23 8 -9 7 9 19 14 27 11 9 -3 11 0 6 9 -5 8 4
3 19 -11 15 -14 28 -24 29 -23 1 1 14 6 28 12 19 7 30 6 38 -2 8 -8 11 -8 11
1 0 7 7 12 16 12 9 0 12 -5 8 -12 -4 -6 3 -4 16 5 17 12 28 14 43 6 13 -8 17
-8 13 -1 -3 6 -2 13 4 17 5 3 10 2 10 -4 0 -5 8 -8 18 -6 9 1 17 9 16 17 -1 8
5 15 12 15 8 0 14 -3 14 -7 0 -4 7 -7 15 -7 9 0 14 6 11 14 -7 18 3 16 28 -4
12 -10 18 -14 14 -9 -4 5 0 15 10 23 15 13 14 13 -8 3 -20 -9 -18 -5 10 19 28
23 38 27 49 18 11 -9 13 -9 8 -1 -8 13 19 27 34 19 5 -4 6 1 3 9 -3 9 -11 13
-18 9 -7 -4 -7 -1 1 9 7 8 9 19 5 24 -4 4 1 2 11 -5 15 -12 17 -12 11 3 -3 9
-1 16 5 16 6 0 11 5 11 11 0 5 -5 7 -12 3 -7 -5 -8 -3 -4 5 5 7 15 10 23 7 9
-4 11 -2 6 7 -11 17 -10 31 2 40 6 4 5 10 -4 16 -8 5 -10 14 -5 22 11 18 13
49 2 43 -4 -3 -8 0 -8 6 0 6 -4 8 -10 5 -5 -3 -10 -1 -10 4 0 6 6 11 13 12 6
0 2 4 -10 9 -14 6 -23 18 -23 31 0 15 -5 19 -15 15 -8 -3 -15 -2 -15 2 0 5 -7
17 -16 28 -8 10 -13 13 -9 7 4 -9 1 -11 -9 -7 -9 3 -13 10 -10 15 3 5 1 9 -5
9 -5 0 -12 -6 -14 -12 -4 -8 -6 -7 -6 4 -1 9 5 19 12 21 6 3 -5 4 -26 3 -21
-1 -41 2 -44 7 -4 6 -1 7 7 2 9 -6 11 -4 5 4 -5 9 -11 9 -17 3 -13 -13 -50 17
-41 32 4 6 0 5 -9 -2 -10 -8 -18 -9 -22 -3 -4 6 -13 8 -21 5 -8 -4 -12 -10 -9
-15 3 -5 0 -8 -8 -7 -7 2 -12 -3 -10 -10 1 -8 -2 -11 -8 -7 -8 5 -7 11 1 21
12 15 5 18 -39 14 -13 -1 -30 4 -39 12 -14 11 -15 11 -8 -1z m-158 -33 c0 -7
-12 -14 -26 -15 l-26 -1 25 14 c14 7 25 13 26 14 0 0 1 -6 1 -12z m334 -5 c11
-15 11 -16 -1 -6 -11 10 -17 10 -29 0 -14 -11 -14 -10 -2 6 7 9 15 17 16 17 1
0 9 -8 16 -17z m-578 -158 c-3 -9 -8 -14 -10 -11 -3 3 -2 9 2 15 9 16 15 13 8
-4z m-11 -42 c-6 -2 -9 -10 -6 -15 4 -7 2 -8 -5 -4 -13 9 -5 26 12 25 9 0 8
-2 -1 -6z"/>
<path d="M755 690 c3 -5 8 -10 11 -10 2 0 4 5 4 10 0 6 -5 10 -11 10 -5 0 -7
-4 -4 -10z"/>
<path d="M630 661 c0 -7 -5 -9 -12 -5 -7 5 -8 3 -3 -5 5 -9 10 -10 18 -2 6 6
8 14 4 18 -4 3 -7 1 -7 -6z"/>
<path d="M1720 520 c0 -5 5 -10 11 -10 5 0 7 5 4 10 -3 6 -8 10 -11 10 -2 0
-4 -4 -4 -10z"/>
<path d="M1800 420 c-13 -8 -12 -10 3 -10 9 0 17 5 17 10 0 12 -1 12 -20 0z"/>
<path d="M1197 253 c-4 -3 -7 -11 -7 -17 0 -6 5 -5 12 2 6 6 9 14 7 17 -3 3
-9 2 -12 -2z"/>
</g>
</svg>
